<svg width="162" height="30" viewBox="0 0 162 30" fill="none" xmlns="http://www.w3.org/2000/svg">
<path d="M25.168 24.24C24.096 24.24 23.136 23.976 22.288 23.448C21.456 22.92 20.792 22.2 20.296 21.288C19.816 20.376 19.576 19.336 19.576 18.168C19.576 17 19.816 15.96 20.296 15.048C20.792 14.136 21.456 13.416 22.288 12.888C23.136 12.36 24.096 12.096 25.168 12.096C25.952 12.096 26.656 12.248 27.28 12.552C27.92 12.856 28.44 13.28 28.84 13.824C29.24 14.352 29.464 14.96 29.512 15.648V20.688C29.464 21.376 29.24 21.992 28.84 22.536C28.456 23.064 27.944 23.48 27.304 23.784C26.664 24.088 25.952 24.24 25.168 24.24ZM25.912 20.928C26.696 20.928 27.328 20.672 27.808 20.16C28.288 19.632 28.528 18.968 28.528 18.168C28.528 17.624 28.416 17.144 28.192 16.728C27.984 16.312 27.68 15.992 27.28 15.768C26.896 15.528 26.448 15.408 25.936 15.408C25.424 15.408 24.968 15.528 24.568 15.768C24.184 15.992 23.872 16.312 23.632 16.728C23.408 17.144 23.296 17.624 23.296 18.168C23.296 18.696 23.408 19.168 23.632 19.584C23.856 20 24.168 20.328 24.568 20.568C24.968 20.808 25.416 20.928 25.912 20.928ZM28.384 24V20.856L28.936 18.024L28.384 15.192V12.336H31.984V24H28.384ZM34.5694 24V12.336H38.2414V24H34.5694ZM42.0334 24V17.184C42.0334 16.592 41.8494 16.136 41.4814 15.816C41.1294 15.48 40.6894 15.312 40.1614 15.312C39.7934 15.312 39.4654 15.392 39.1774 15.552C38.8894 15.696 38.6574 15.904 38.4814 16.176C38.3214 16.448 38.2414 16.784 38.2414 17.184L36.8254 16.56C36.8254 15.632 37.0254 14.84 37.4254 14.184C37.8254 13.512 38.3694 13 39.0574 12.648C39.7454 12.28 40.5214 12.096 41.3854 12.096C42.2014 12.096 42.9294 12.28 43.5694 12.648C44.2254 13.016 44.7454 13.528 45.1294 14.184C45.5134 14.84 45.7054 15.624 45.7054 16.536V24H42.0334ZM49.4974 24V17.184C49.4974 16.592 49.3134 16.136 48.9454 15.816C48.5934 15.48 48.1534 15.312 47.6254 15.312C47.2574 15.312 46.9294 15.392 46.6414 15.552C46.3534 15.696 46.1214 15.904 45.9454 16.176C45.7854 16.448 45.7054 16.784 45.7054 17.184L43.5934 16.896C43.6254 15.904 43.8574 15.056 44.2894 14.352C44.7374 13.632 45.3214 13.08 46.0414 12.696C46.7774 12.296 47.6014 12.096 48.5134 12.096C49.4094 12.096 50.2014 12.288 50.8894 12.672C51.5934 13.04 52.1454 13.576 52.5454 14.28C52.9614 14.968 53.1694 15.8 53.1694 16.776V24H49.4974ZM61.2826 24.264C60.0186 24.264 58.8906 24.008 57.8986 23.496C56.9226 22.968 56.1546 22.24 55.5946 21.312C55.0346 20.384 54.7546 19.336 54.7546 18.168C54.7546 17 55.0266 15.96 55.5706 15.048C56.1306 14.12 56.8826 13.392 57.8266 12.864C58.7706 12.336 59.8346 12.072 61.0186 12.072C62.1706 12.072 63.1866 12.32 64.0666 12.816C64.9466 13.312 65.6346 14 66.1306 14.88C66.6426 15.76 66.8986 16.768 66.8986 17.904C66.8986 18.112 66.8826 18.336 66.8506 18.576C66.8346 18.8 66.7946 19.064 66.7306 19.368L56.6746 19.392V16.872L65.1706 16.848L63.5866 17.904C63.5706 17.232 63.4666 16.68 63.2746 16.248C63.0826 15.8 62.7946 15.464 62.4106 15.24C62.0426 15 61.5866 14.88 61.0426 14.88C60.4666 14.88 59.9626 15.016 59.5306 15.288C59.1146 15.544 58.7866 15.912 58.5466 16.392C58.3226 16.872 58.2106 17.456 58.2106 18.144C58.2106 18.832 58.3306 19.424 58.5706 19.92C58.8266 20.4 59.1786 20.776 59.6266 21.048C60.0906 21.304 60.6346 21.432 61.2586 21.432C61.8346 21.432 62.3546 21.336 62.8186 21.144C63.2826 20.936 63.6906 20.632 64.0426 20.232L66.0586 22.248C65.4826 22.92 64.7866 23.424 63.9706 23.76C63.1546 24.096 62.2586 24.264 61.2826 24.264Z" fill="white"/>
<path d="M9.624 24.264C8.392 24.264 7.232 24.04 6.144 23.592C5.072 23.144 4.136 22.528 3.336 21.744C2.536 20.944 1.904 20.016 1.44 18.96C0.992 17.888 0.768 16.736 0.768 15.504C0.768 14.272 1 13.128 1.464 12.072C1.928 11.016 2.568 10.096 3.384 9.312C4.216 8.512 5.184 7.896 6.288 7.464C7.392 7.016 8.576 6.792 9.84 6.792C11.296 6.792 12.616 7.056 13.8 7.584C15 8.112 15.992 8.84 16.776 9.768L14.208 12.336C13.664 11.632 13.024 11.104 12.288 10.752C11.552 10.4 10.72 10.224 9.792 10.224C8.8 10.224 7.912 10.448 7.128 10.896C6.344 11.328 5.728 11.944 5.28 12.744C4.848 13.528 4.632 14.448 4.632 15.504C4.632 16.56 4.848 17.488 5.28 18.288C5.712 19.088 6.304 19.712 7.056 20.16C7.808 20.608 8.672 20.832 9.648 20.832C10.64 20.832 11.48 20.648 12.168 20.28C12.872 19.896 13.408 19.352 13.776 18.648C14.16 17.928 14.352 17.056 14.352 16.032L16.848 17.712L9.288 17.592V14.4H18.192V14.952C18.192 16.984 17.824 18.696 17.088 20.088C16.368 21.464 15.36 22.504 14.064 23.208C12.784 23.912 11.304 24.264 9.624 24.264ZM78.7892 24.264C77.5252 24.264 76.3492 24.048 75.2612 23.616C74.1892 23.168 73.2452 22.544 72.4292 21.744C71.6292 20.944 71.0052 20.016 70.5572 18.96C70.1092 17.888 69.8852 16.736 69.8852 15.504C69.8852 14.272 70.1092 13.128 70.5572 12.072C71.0052 11 71.6292 10.072 72.4292 9.288C73.2292 8.504 74.1652 7.896 75.2372 7.464C76.3252 7.016 77.5012 6.792 78.7652 6.792C80.1092 6.792 81.3012 7.008 82.3412 7.44C83.3972 7.872 84.3172 8.464 85.1012 9.216L82.5812 11.76C82.1332 11.28 81.5892 10.904 80.9492 10.632C80.3252 10.36 79.5972 10.224 78.7652 10.224C78.0292 10.224 77.3492 10.352 76.7252 10.608C76.1172 10.848 75.5892 11.2 75.1412 11.664C74.7092 12.128 74.3652 12.688 74.1092 13.344C73.8692 14 73.7492 14.72 73.7492 15.504C73.7492 16.304 73.8692 17.032 74.1092 17.688C74.3652 18.344 74.7092 18.904 75.1412 19.368C75.5892 19.832 76.1172 20.192 76.7252 20.448C77.3492 20.704 78.0292 20.832 78.7652 20.832C79.6292 20.832 80.3812 20.696 81.0212 20.424C81.6612 20.152 82.2132 19.776 82.6772 19.296L85.2212 21.84C84.4052 22.592 83.4692 23.184 82.4132 23.616C81.3732 24.048 80.1652 24.264 78.7892 24.264ZM92.2948 24.264C91.0948 24.264 90.0068 24 89.0308 23.472C88.0708 22.928 87.3108 22.192 86.7508 21.264C86.1908 20.336 85.9108 19.296 85.9108 18.144C85.9108 16.992 86.1908 15.96 86.7508 15.048C87.3108 14.136 88.0708 13.416 89.0308 12.888C89.9908 12.344 91.0788 12.072 92.2948 12.072C93.5108 12.072 94.5988 12.336 95.5588 12.864C96.5188 13.392 97.2788 14.12 97.8388 15.048C98.3988 15.96 98.6788 16.992 98.6788 18.144C98.6788 19.296 98.3988 20.336 97.8388 21.264C97.2788 22.192 96.5188 22.928 95.5588 23.472C94.5988 24 93.5108 24.264 92.2948 24.264ZM92.2948 20.928C92.8228 20.928 93.2868 20.816 93.6868 20.592C94.0868 20.352 94.3908 20.024 94.5988 19.608C94.8228 19.176 94.9348 18.688 94.9348 18.144C94.9348 17.6 94.8228 17.128 94.5988 16.728C94.3748 16.312 94.0628 15.992 93.6628 15.768C93.2788 15.528 92.8228 15.408 92.2948 15.408C91.7828 15.408 91.3268 15.528 90.9268 15.768C90.5268 15.992 90.2148 16.312 89.9908 16.728C89.7668 17.144 89.6548 17.624 89.6548 18.168C89.6548 18.696 89.7668 19.176 89.9908 19.608C90.2148 20.024 90.5268 20.352 90.9268 20.592C91.3268 20.816 91.7828 20.928 92.2948 20.928ZM108.211 24V17.352C108.211 16.744 108.019 16.256 107.635 15.888C107.267 15.504 106.795 15.312 106.219 15.312C105.819 15.312 105.467 15.4 105.163 15.576C104.859 15.736 104.619 15.976 104.443 16.296C104.267 16.6 104.179 16.952 104.179 17.352L102.763 16.656C102.763 15.744 102.963 14.944 103.363 14.256C103.763 13.568 104.315 13.04 105.019 12.672C105.739 12.288 106.547 12.096 107.443 12.096C108.307 12.096 109.067 12.304 109.723 12.72C110.395 13.12 110.923 13.656 111.307 14.328C111.691 15 111.883 15.736 111.883 16.536V24H108.211ZM100.507 24V12.336H104.179V24H100.507ZM121.945 24V17.352C121.945 16.744 121.753 16.256 121.369 15.888C121.001 15.504 120.529 15.312 119.953 15.312C119.553 15.312 119.201 15.4 118.897 15.576C118.593 15.736 118.353 15.976 118.177 16.296C118.001 16.6 117.913 16.952 117.913 17.352L116.497 16.656C116.497 15.744 116.697 14.944 117.097 14.256C117.497 13.568 118.049 13.04 118.753 12.672C119.473 12.288 120.281 12.096 121.177 12.096C122.041 12.096 122.801 12.304 123.457 12.72C124.129 13.12 124.657 13.656 125.041 14.328C125.425 15 125.617 15.736 125.617 16.536V24H121.945ZM114.241 24V12.336H117.913V24H114.241ZM133.736 24.264C132.472 24.264 131.344 24.008 130.352 23.496C129.376 22.968 128.608 22.24 128.048 21.312C127.488 20.384 127.208 19.336 127.208 18.168C127.208 17 127.48 15.96 128.024 15.048C128.584 14.12 129.336 13.392 130.28 12.864C131.224 12.336 132.288 12.072 133.472 12.072C134.624 12.072 135.64 12.32 136.52 12.816C137.4 13.312 138.088 14 138.584 14.88C139.096 15.76 139.352 16.768 139.352 17.904C139.352 18.112 139.336 18.336 139.304 18.576C139.288 18.8 139.248 19.064 139.184 19.368L129.128 19.392V16.872L137.624 16.848L136.04 17.904C136.024 17.232 135.92 16.68 135.728 16.248C135.536 15.8 135.248 15.464 134.864 15.24C134.496 15 134.04 14.88 133.496 14.88C132.92 14.88 132.416 15.016 131.984 15.288C131.568 15.544 131.24 15.912 131 16.392C130.776 16.872 130.664 17.456 130.664 18.144C130.664 18.832 130.784 19.424 131.024 19.92C131.28 20.4 131.632 20.776 132.08 21.048C132.544 21.304 133.088 21.432 133.712 21.432C134.288 21.432 134.808 21.336 135.272 21.144C135.736 20.936 136.144 20.632 136.496 20.232L138.512 22.248C137.936 22.92 137.24 23.424 136.424 23.76C135.608 24.096 134.712 24.264 133.736 24.264ZM146.764 24.264C145.564 24.264 144.476 24 143.5 23.472C142.524 22.944 141.756 22.216 141.196 21.288C140.636 20.36 140.356 19.32 140.356 18.168C140.356 17 140.636 15.96 141.196 15.048C141.772 14.12 142.548 13.392 143.524 12.864C144.5 12.336 145.596 12.072 146.812 12.072C147.724 12.072 148.556 12.232 149.308 12.552C150.076 12.856 150.756 13.32 151.348 13.944L148.996 16.296C148.724 15.992 148.404 15.768 148.036 15.624C147.684 15.48 147.276 15.408 146.812 15.408C146.284 15.408 145.812 15.528 145.396 15.768C144.996 15.992 144.676 16.312 144.436 16.728C144.212 17.128 144.1 17.6 144.1 18.144C144.1 18.688 144.212 19.168 144.436 19.584C144.676 20 145.004 20.328 145.42 20.568C145.836 20.808 146.3 20.928 146.812 20.928C147.292 20.928 147.716 20.848 148.084 20.688C148.468 20.512 148.796 20.272 149.068 19.968L151.396 22.32C150.788 22.96 150.1 23.448 149.332 23.784C148.564 24.104 147.708 24.264 146.764 24.264ZM154.499 24V7.512H158.171V24H154.499ZM151.859 15.456V12.336H160.811V15.456H151.859Z" fill="url(#paint0_linear_11_465)"/>
<defs>
<linearGradient id="paint0_linear_11_465" x1="0" y1="15" x2="162" y2="15" gradientUnits="userSpaceOnUse">
<stop stop-color="#0393A5"/>
<stop offset="0.46" stop-color="#29D44E"/>
<stop offset="1" stop-color="#087A88"/>
</linearGradient>
</defs>
</svg>
